<svg width="24" height="25" viewBox="0 0 24 25" fill="none" xmlns="http://www.w3.org/2000/svg">
<path d="M10 13.5C10.4295 14.0741 10.9774 14.5491 11.6066 14.8929C12.2357 15.2367 12.9315 15.4411 13.6467 15.4923C14.3618 15.5435 15.0796 15.4403 15.7513 15.1897C16.4231 14.9392 17.0331 14.547 17.54 14.04L20.54 11.04C21.4508 10.097 21.9548 8.83394 21.9434 7.52296C21.932 6.21198 21.4061 4.95791 20.4791 4.03087C19.5521 3.10383 18.298 2.57799 16.987 2.5666C15.676 2.5552 14.413 3.05918 13.47 3.96997L11.75 5.67997M14 11.5C13.5705 10.9258 13.0226 10.4508 12.3935 10.107C11.7643 9.76327 11.0685 9.55885 10.3534 9.50763C9.63821 9.45641 8.92041 9.5596 8.24866 9.81018C7.5769 10.0608 6.96689 10.4529 6.46 10.96L3.46 13.96C2.54921 14.903 2.04524 16.166 2.05663 17.477C2.06802 18.788 2.59387 20.042 3.52091 20.9691C4.44795 21.8961 5.70201 22.4219 7.013 22.4333C8.32398 22.4447 9.58699 21.9408 10.53 21.03L12.24 19.32" stroke="#D9D9D9" stroke-width="2.5" stroke-linecap="round" stroke-linejoin="round"/>
</svg>
