<svg width="313" height="338" viewBox="0 0 313 338" fill="none" xmlns="http://www.w3.org/2000/svg">
<path d="M222 0.95877L265.605 72.3035L265.841 72.6904L266.249 72.4928L341.504 36.0483L339.615 119.642L339.604 120.095L340.055 120.15L423.066 130.176L376.283 199.478L376.029 199.854L376.378 200.143L440.791 253.457L363.967 286.465L363.551 286.644L363.688 287.076L389.052 366.751L306.578 352.985L306.131 352.91L306.013 353.348L284.274 434.087L222.336 377.918L222 377.613L221.664 377.918L159.725 434.087L137.987 353.348L137.869 352.91L137.422 352.985L54.9482 366.751L80.3119 287.076L80.4494 286.644L80.0328 286.465L3.20867 253.457L67.6216 200.143L67.9709 199.854L67.7172 199.478L20.9338 130.176L103.945 120.15L104.396 120.095L104.385 119.642L102.496 36.0483L177.751 72.4928L178.159 72.6904L178.395 72.3035L222 0.95877Z" fill="#F8EED4" stroke="#111111"/>
<path d="M222 78.9588L250.134 124.991L250.371 125.378L250.779 125.18L299.334 101.666L298.115 155.602L298.105 156.055L298.555 156.109L352.115 162.579L321.93 207.293L321.676 207.669L322.025 207.958L363.585 242.357L314.017 263.654L313.601 263.833L313.738 264.265L330.103 315.672L276.89 306.79L276.443 306.715L276.325 307.153L262.299 359.247L222.336 323.006L222 322.701L221.664 323.006L181.701 359.247L167.675 307.153L167.557 306.715L167.11 306.79L113.897 315.672L130.262 264.265L130.399 263.833L129.983 263.654L80.4147 242.357L121.975 207.958L122.324 207.669L122.07 207.293L91.8851 162.579L145.445 156.109L145.895 156.055L145.885 155.602L144.666 101.666L193.221 125.18L193.629 125.378L193.866 124.991L222 78.9588Z" fill="#EDD5BF" stroke="#111111"/>
<path d="M222 145.959L236.846 170.249L237.082 170.635L237.49 170.438L263.111 158.03L262.468 186.49L262.458 186.943L262.908 186.998L291.17 190.411L275.242 214.006L274.988 214.381L275.337 214.671L297.267 232.822L271.112 244.059L270.695 244.238L270.833 244.67L279.468 271.796L251.389 267.109L250.942 267.035L250.824 267.473L243.423 294.961L222.336 275.838L222 275.533L221.664 275.838L200.577 294.961L193.176 267.473L193.058 267.035L192.611 267.109L164.532 271.796L173.167 244.67L173.305 244.238L172.888 244.059L146.733 232.822L168.663 214.671L169.012 214.381L168.758 214.006L152.83 190.411L181.092 186.998L181.542 186.943L181.532 186.49L180.889 158.03L206.51 170.438L206.918 170.635L207.154 170.249L222 145.959Z" fill="#DC7E7E" stroke="#111111"/>
</svg>
