<svg width="358" height="332" viewBox="0 0 358 332" fill="none" xmlns="http://www.w3.org/2000/svg">
<path d="M268.965 85.6211C270.417 80.1794 278.14 80.1794 279.592 85.6211L288.829 120.22C299.585 160.506 331.051 191.972 371.337 202.728L405.936 211.965C411.378 213.417 411.378 221.14 405.936 222.592L371.337 231.829C331.051 242.585 299.585 274.051 288.829 314.337L279.592 348.936C278.14 354.378 270.417 354.378 268.965 348.936L259.728 314.337C248.972 274.051 217.506 242.585 177.22 231.829L142.621 222.592C137.179 221.14 137.179 213.417 142.621 211.965L177.22 202.728C217.506 191.972 248.972 160.506 259.728 120.22L268.965 85.6211Z" fill="white" stroke="black"/>
<path d="M176.186 21.8426C177.639 16.4008 185.361 16.4008 186.814 21.8426L196.051 56.4414C206.806 96.7276 238.272 128.194 278.559 138.949L313.157 148.186C318.599 149.639 318.599 157.361 313.157 158.814L278.559 168.051C238.272 178.806 206.806 210.272 196.051 250.559L186.814 285.157C185.361 290.599 177.639 290.599 176.186 285.157L166.949 250.559C156.194 210.272 124.728 178.806 84.4414 168.051L49.8426 158.814C44.4008 157.361 44.4008 149.639 49.8426 148.186L84.4414 138.949C124.728 128.194 156.194 96.7276 166.949 56.4414L176.186 21.8426Z" stroke="black"/>
<path d="M302.008 19.707C302.19 17.9085 304.81 17.9085 304.992 19.707L305.88 28.4718C306.717 36.7427 313.257 43.2831 321.528 44.1204L330.293 45.0076C332.092 45.1897 332.092 47.8103 330.293 47.9924L321.528 48.8796C313.257 49.7169 306.717 56.2573 305.88 64.5281L304.992 73.293C304.81 75.0915 302.19 75.0915 302.008 73.293L301.12 64.5282C300.283 56.2573 293.743 49.7169 285.472 48.8796L276.707 47.9924C274.908 47.8103 274.908 45.1897 276.707 45.0076L285.472 44.1204C293.743 43.2831 300.283 36.7427 301.12 28.4719L302.008 19.707Z" fill="white" stroke="black"/>
<path d="M27.4584 92.2538C27.5855 90.9985 29.4145 90.9985 29.5416 92.2538C30.1946 98.7044 35.2956 103.805 41.7462 104.458C43.0015 104.585 43.0015 106.415 41.7462 106.542C35.2956 107.195 30.1946 112.296 29.5416 118.746C29.4145 120.001 27.5855 120.001 27.4584 118.746C26.8054 112.296 21.7044 107.195 15.2538 106.542C13.9985 106.415 13.9985 104.585 15.2538 104.458C21.7044 103.805 26.8054 98.7044 27.4584 92.2538Z" fill="white" stroke="black"/>
</svg>
