<svg width="16" height="16" viewBox="0 0 16 16" fill="none" xmlns="http://www.w3.org/2000/svg">
<path fill-rule="evenodd" clip-rule="evenodd" d="M7.29289 0.292893C7.68342 -0.0976311 8.31658 -0.0976311 8.70711 0.292893C9.09763 0.683418 9.09763 1.31658 8.70711 1.70711L3.41421 7L15 7C15.5523 7 16 7.44772 16 8C16 8.55229 15.5523 9 15 9H3.41421L8.70711 14.2929C9.09763 14.6834 9.09763 15.3166 8.70711 15.7071C8.31658 16.0976 7.68342 16.0976 7.29289 15.7071L0.293607 8.70782C0.29119 8.70541 0.288787 8.70298 0.286395 8.70055C0.109902 8.52079 0.000801086 8.27463 3.8147e-06 8.003C9.53674e-07 8.002 0 8.001 0 8C0 7.999 9.53674e-07 7.998 3.8147e-06 7.997C0.000398636 7.8625 0.0273466 7.73425 0.0758791 7.61722C0.12357 7.50195 0.193742 7.3938 0.286395 7.29945C0.288754 7.29705 0.291124 7.29466 0.293507 7.29228M7.29289 0.292893L0.293507 7.29228L7.29289 0.292893Z" fill="black"/>
</svg>
